<?xml version="1.0" encoding="utf-8"?>
<!-- Generator: Adobe Illustrator 22.0.1, SVG Export Plug-In . SVG Version: 6.00 Build 0)  -->
<svg version="1.1" id="레이어_1" xmlns="http://www.w3.org/2000/svg" xmlns:xlink="http://www.w3.org/1999/xlink" x="0px"
	 y="0px" viewBox="0 0 69.5 69.5" style="enable-background:new 0 0 69.5 69.5;" xml:space="preserve">
<style type="text/css">
	.st0{fill:#ACACAC;}
</style>
<g>
	<path class="st0" d="M63.7,0H42.2c-3.2,0-5.8,2.6-5.8,5.8v21.5c0,3.2,2.6,5.8,5.8,5.8h21.5c3.2,0,5.8-2.6,5.8-5.8V5.8
		C69.5,2.6,66.9,0,63.7,0z M66.1,27.3c0,1.3-1.1,2.4-2.4,2.4H42.2c-1.3,0-2.4-1.1-2.4-2.4V5.8c0-1.3,1.1-2.4,2.4-2.4h21.5
		c1.3,0,2.4,1.1,2.4,2.4V27.3z"/>
	<path class="st0" d="M55.4,16.5l3.1-3.1c0.7-0.7,0.7-1.7,0-2.4c-0.3-0.3-0.8-0.5-1.2-0.5c-0.4,0-0.9,0.2-1.2,0.5L53,14.1l-3.1-3.1
		c-0.3-0.3-0.8-0.5-1.2-0.5c-0.9,0-1.7,0.7-1.7,1.7c0,0.5,0.2,0.9,0.5,1.2l3.1,3.1l-3.1,3.1c-0.7,0.7-0.7,1.7,0,2.4
		c0.7,0.7,1.7,0.7,2.4,0l3.1-3.1L56,22c0.3,0.3,0.7,0.5,1.2,0.5c0.9,0,1.7-0.7,1.7-1.7c0-0.5-0.2-0.9-0.5-1.2L55.4,16.5z"/>
	<path class="st0" d="M63.7,36.5H42.2c-3.2,0-5.8,2.6-5.8,5.8v21.5c0,3.2,2.6,5.8,5.8,5.8h21.5c3.2,0,5.8-2.6,5.8-5.8V42.2
		C69.5,39,66.9,36.5,63.7,36.5z M66.1,63.7c0,1.3-1.1,2.4-2.4,2.4H42.2c-1.3,0-2.4-1.1-2.4-2.4V42.2c0-1.3,1.1-2.4,2.4-2.4h21.5
		c1.3,0,2.4,1.1,2.4,2.4V63.7z"/>
	<path class="st0" d="M59,51.3h-4.3v-4.3c0-0.9-0.8-1.7-1.8-1.6c-0.9,0-1.6,0.7-1.6,1.6v4.3H47c-0.9,0-1.7,0.8-1.7,1.7
		c0,0.9,0.8,1.7,1.7,1.7h4.3V59c0,0.9,0.8,1.7,1.8,1.6c0.9,0,1.6-0.7,1.6-1.6v-4.3H59c0.9,0,1.7-0.8,1.7-1.7
		C60.7,52,59.9,51.3,59,51.3z"/>
	<path class="st0" d="M27.3,36.5H5.8C2.6,36.5,0,39,0,42.2v21.5c0,3.2,2.6,5.8,5.8,5.8h21.5c3.2,0,5.8-2.6,5.8-5.8V42.2
		C33,39,30.5,36.5,27.3,36.5z M29.6,63.7c0,1.3-1.1,2.4-2.4,2.4H5.8c-1.3,0-2.4-1.1-2.4-2.4V42.2c0-1.3,1.1-2.4,2.4-2.4h21.5
		c1.3,0,2.4,1.1,2.4,2.4V63.7z"/>
	<path class="st0" d="M22.5,51.3h-12c-0.9,0-1.7,0.8-1.7,1.7c0,0.9,0.8,1.7,1.7,1.7h12c0.9,0,1.7-0.8,1.7-1.7
		C24.2,52,23.5,51.3,22.5,51.3z"/>
	<path class="st0" d="M27.3,0H5.8C2.6,0,0,2.6,0,5.8v21.5C0,30.4,2.6,33,5.8,33h21.5c3.2,0,5.8-2.6,5.8-5.8V5.8
		C33,2.6,30.5,0,27.3,0z M29.6,27.3c0,1.3-1.1,2.4-2.4,2.4H5.8c-1.3,0-2.4-1.1-2.4-2.4V5.8c0-1.3,1.1-2.4,2.4-2.4h21.5
		c1.3,0,2.4,1.1,2.4,2.4V27.3z"/>
	<path class="st0" d="M23.3,14.8H9.8c-0.9,0-1.7,0.8-1.7,1.7s0.8,1.7,1.7,1.7h13.5c0.9,0,1.7-0.8,1.7-1.7S24.2,14.8,23.3,14.8z"/>
	<path class="st0" d="M16.5,12c0.9,0,1.7-0.8,1.7-1.7c0-0.9-0.8-1.7-1.7-1.7c-0.9,0-1.7,0.8-1.7,1.7C14.8,11.2,15.6,12,16.5,12z"/>
	<path class="st0" d="M16.5,21.1c-0.9,0-1.7,0.8-1.7,1.7c0,0.9,0.8,1.7,1.7,1.7c0.9,0,1.7-0.8,1.7-1.7
		C18.2,21.8,17.4,21.1,16.5,21.1z"/>
</g>
</svg>
