<svg xmlns="http://www.w3.org/2000/svg" width="27.455" height="27.566" viewBox="0 0 27.455 27.566"><defs><style>.a{fill:none;}.b{fill:#555;}</style></defs><path class="a" d="M76.747,76.819V80.1L80.9,75.729a.637.637,0,0,1,.074-.064H77.9A1.156,1.156,0,0,0,76.747,76.819Z" transform="translate(-54.86 -54.053)"/><path class="a" d="M9.337,51.2a1.156,1.156,0,0,0,1.155,1.154H28.578V48.875A2.48,2.48,0,0,1,31.055,46.4h3.09V35.454H9.337Zm19.13-13.014h2.315V40.5H28.467V38.183Zm0,4.465h2.315v2.315H28.467V42.648ZM23.23,38.183h2.315V40.5H23.23Zm0,4.465h2.315v2.315H23.23Zm0,4.466h2.315v2.315H23.23Zm-5.237-8.931h2.315V40.5H17.993Zm0,4.465h2.315v2.315H17.993Zm0,4.466h2.315v2.315H17.993Zm-5.237-8.931H15.07V40.5H12.755Zm0,4.465H15.07v2.315H12.755Zm0,4.466H15.07v2.315H12.755Z" transform="translate(-8.014 -26.108)"/><path class="b" d="M29.977,12.773H28.243V14.8a2.015,2.015,0,0,1-2.015,2.015H26.1A2.015,2.015,0,0,1,24.082,14.8V12.773H13.158V14.8a2.015,2.015,0,0,1-2.015,2.015h-.131A2.015,2.015,0,0,1,9,14.8v-2.03H7.478A2.477,2.477,0,0,0,5,15.251V35.435a2.477,2.477,0,0,0,2.477,2.477H26.982l.276-.062a.658.658,0,0,0,.2-.144L32,32.933l.024-.025a1.541,1.541,0,0,0,.434-1.071V15.251A2.478,2.478,0,0,0,29.977,12.773Zm1.061,19.249-4.151,4.369V33.113a1.156,1.156,0,0,1,1.154-1.155h3.071A.668.668,0,0,0,31.038,32.022Zm.094-1.387H28.041a2.48,2.48,0,0,0-2.477,2.478v3.476H7.478a1.156,1.156,0,0,1-1.155-1.154V19.692H31.131V30.635Z" transform="translate(-5 -10.346)"/><path class="b" d="M22.222,10.424a1.151,1.151,0,0,0,1.149-1.149V5.966a1.151,1.151,0,0,0-1.149-1.149h-.131a1.151,1.151,0,0,0-1.149,1.149V9.275a1.151,1.151,0,0,0,1.149,1.149Z" transform="translate(-16.079 -4.817)"/><path class="b" d="M71.671,10.424a1.151,1.151,0,0,0,1.149-1.149V5.966a1.151,1.151,0,0,0-1.149-1.149H71.54a1.151,1.151,0,0,0-1.149,1.149V9.275a1.151,1.151,0,0,0,1.149,1.149Z" transform="translate(-50.443 -4.817)"/><rect class="b" width="2.315" height="2.315" transform="translate(4.741 12.075)"/><rect class="b" width="2.315" height="2.315" transform="translate(9.979 12.075)"/><rect class="b" width="2.315" height="2.315" transform="translate(15.216 12.075)"/><rect class="b" width="2.315" height="2.315" transform="translate(20.453 12.075)"/><rect class="b" width="2.315" height="2.315" transform="translate(4.741 16.54)"/><rect class="b" width="2.315" height="2.315" transform="translate(9.979 16.54)"/><rect class="b" width="2.315" height="2.315" transform="translate(15.216 16.54)"/><rect class="b" width="2.315" height="2.315" transform="translate(20.453 16.54)"/><rect class="b" width="2.315" height="2.315" transform="translate(4.741 21.006)"/><rect class="b" width="2.315" height="2.315" transform="translate(9.979 21.006)"/><rect class="b" width="2.315" height="2.315" transform="translate(15.216 21.006)"/></svg>