<?xml version="1.0" encoding="utf-8"?>
<!-- Generator: Adobe Illustrator 22.0.1, SVG Export Plug-In . SVG Version: 6.00 Build 0)  -->
<svg version="1.1" id="레이어_1" xmlns="http://www.w3.org/2000/svg" xmlns:xlink="http://www.w3.org/1999/xlink" x="0px"
	 y="0px" viewBox="0 0 82.6 76.2" style="enable-background:new 0 0 82.6 76.2;" xml:space="preserve">
<style type="text/css">
	.st0{fill:#ACACAC;}
</style>
<g id="그룹_7243_2_">
	<g id="그룹_7243_3_" transform="translate(-142.833 -13.667)">
		<path id="패스_8779_1_" class="st0" d="M149.8,89.9c-3.8,0-6.9-3.1-6.9-6.9V25l0.2-0.7c0.5-1.7,2-2.9,3.8-2.9h6.8v-7.8h8.9v7.8
			h43.3v-7.8h8.9v7.8h6.8c1.8,0,3.3,1.2,3.8,2.9l0.1,1.1l0,0v57.5c0,3.8-3.1,6.9-6.9,6.9L149.8,89.9z M147.8,82.9c0,1.1,0.9,2,2,2
			h68.8c1.1,0,2-0.9,2-2V42.4h-72.8L147.8,82.9z"/>
		<path id="패스_8780_1_" class="st0" d="M179.1,76.8L166.8,61l4.5-2.9l10,12.4l16.1-21.9l4.5,2.9l-18.4,25.2l-2.2,2.8L179.1,76.8
			z"/>
	</g>
</g>
</svg>
