<svg xmlns="http://www.w3.org/2000/svg" width="28.211" height="22.608" viewBox="0 0 28.211 22.608"><defs><style>.a{fill:#eee;}.b{fill:#acacac;}.c{fill:#666;}.d{fill:#222;}.e{fill:#fff;}</style></defs><path class="a" d="M254.028,261.271v-4.12a3.724,3.724,0,1,1,7.448,0v4.12H264.9v-4.12a7.152,7.152,0,0,0-14.3,0v4.12Z" transform="translate(-236.692 -249.984)"/><g transform="translate(13.875)"><path class="b" d="M250.4,257.068v4.12h3.427v-4.136a3.708,3.708,0,0,1,.791-2.29,7.188,7.188,0,0,1,4.861-4.6,7.333,7.333,0,0,0-1.912-.264A7.216,7.216,0,0,0,250.4,257.068Z" transform="translate(-250.4 -249.9)"/></g><path class="c" d="M184.03,323.54H168.639A2.444,2.444,0,0,1,166.2,321.1v-7.662A2.444,2.444,0,0,1,168.639,311H184.03a2.444,2.444,0,0,1,2.439,2.439V321.1a2.454,2.454,0,0,1-2.439,2.439Z" transform="translate(-166.2 -300.932)"/><path class="d" d="M254.939,310.9h-1.4V321a2.444,2.444,0,0,1-2.439,2.439h3.839A2.444,2.444,0,0,0,257.378,321v-7.662A2.444,2.444,0,0,0,254.939,310.9Z" transform="translate(-237.11 -300.848)"/><path class="e" d="M219.89,332.5a1.895,1.895,0,1,0-3.79,0,1.875,1.875,0,0,0,1.17,1.747v2.192a.714.714,0,0,0,.709.709.725.725,0,0,0,.709-.709v-2.192A1.873,1.873,0,0,0,219.89,332.5Z" transform="translate(-207.877 -317.302)"/></svg>