<svg xmlns="http://www.w3.org/2000/svg" width="19.28" height="21.465" viewBox="0 0 19.28 21.465"><defs><style>.a{fill:#eee;}.b{fill:#acacac;}.c{fill:#666;}.d{fill:#222;}.e{fill:#fff;}</style></defs><g transform="translate(-3.579 -0.512)"><g transform="translate(3.579 0.512)"><path class="a" d="M185.481,207.4v-3.912a6.791,6.791,0,0,0-13.581,0V207.4h3.262v-3.912a3.528,3.528,0,1,1,7.056,0V207.4Z" transform="translate(-169.051 -196.7)"/><g transform="translate(7.795)"><path class="b" d="M207.231,196.7a6.853,6.853,0,0,0-1.831.251,6.8,6.8,0,0,1,4.606,4.37,3.517,3.517,0,0,1,.753,2.17V207.4h3.262v-3.912A6.782,6.782,0,0,0,207.231,196.7Z" transform="translate(-205.4 -196.7)"/></g><path class="c" d="M169.547,273.043H154.932a2.337,2.337,0,0,1-2.332-2.332v-7.278a2.337,2.337,0,0,1,2.332-2.333h14.615a2.337,2.337,0,0,1,2.333,2.333v7.278a2.347,2.347,0,0,1-2.333,2.332Z" transform="translate(-152.6 -251.593)"/><path class="d" d="M246.261,261.2h-1.329v9.61a2.337,2.337,0,0,1-2.332,2.333h3.646a2.338,2.338,0,0,0,2.332-2.333v-7.278A2.315,2.315,0,0,0,246.261,261.2Z" transform="translate(-229.314 -251.678)"/><path class="e" d="M209.372,283.986a1.786,1.786,0,1,0-2.465,1.653v2.081a.677.677,0,0,0,.679.679.687.687,0,0,0,.679-.679V285.64A1.8,1.8,0,0,0,209.372,283.986Z" transform="translate(-197.946 -269.578)"/></g></g></svg>