<?xml version="1.0" encoding="utf-8"?>
<!-- Generator: Adobe Illustrator 22.0.1, SVG Export Plug-In . SVG Version: 6.00 Build 0)  -->
<svg version="1.1" id="레이어_1" xmlns="http://www.w3.org/2000/svg" xmlns:xlink="http://www.w3.org/1999/xlink" x="0px"
	 y="0px" viewBox="0 0 76.2 69.5" style="enable-background:new 0 0 76.2 69.5;" xml:space="preserve">
<style type="text/css">
	.st0{fill:#ACACAC;}
</style>
<g id="메신저_1_">
	<g id="구성_요소_3_2_1_">
		<path id="패스_8725_1_" class="st0" d="M37.1,69.5C16.6,69.5,0,53.9,0,34.8S16.6,0,37.1,0s37.1,15.6,37.1,34.8
			c0,4.6-1,9.1-2.9,13.3l4.6,14.7c0.5,1.6,0.1,3.3-1.1,4.5c-1.2,1.2-2.9,1.7-4.6,1.3L55,65.1C49.5,68,43.3,69.5,37.1,69.5z
			 M37.1,4.5C19.2,4.5,4.7,18.1,4.7,34.8S19.2,65,37.1,65c5.7,0,11.3-1.5,16.4-4.2l0.8-0.4l17.1,3.9l-5.1-16.4l0.4-0.8
			c1.9-3.8,2.8-8,2.9-12.2C69.5,18.1,55,4.5,37.1,4.5z"/>
	</g>
</g>
</svg>
