<svg xmlns="http://www.w3.org/2000/svg" width="20.476" height="17.485" viewBox="0 0 20.476 17.485"><defs><style>.a{fill:#222;}</style></defs><path class="a" d="M258.369,1197.5l-1.1-.911a.578.578,0,0,0-.371-.136.486.486,0,0,0-.074.005.6.6,0,0,0-.4.242l-9.95,13.574-6.458-5.741a.583.583,0,0,0-.388-.15.442.442,0,0,0-.053,0,.593.593,0,0,0-.409.227l-.9,1.137a.669.669,0,0,0,.075.9l8,7.114a.669.669,0,0,0,.425.172.414.414,0,0,0,.062,0,.612.612,0,0,0,.436-.241l11.207-15.293A.669.669,0,0,0,258.369,1197.5Z" transform="translate(-238.125 -1196.453)"/></svg>