<svg xmlns="http://www.w3.org/2000/svg" width="91" height="105" viewBox="0 0 91 105"><g transform="translate(-33.851 0)"><g transform="translate(53.353 0)"><g transform="translate(0)"><path d="M138.621,13.577,137.337,3.535a4.045,4.045,0,0,0-5.419-3.28,4.2,4.2,0,0,0-2.037,6.267l5.5,8.264A1.776,1.776,0,0,0,138.621,13.577Zm-6.139-8.788a1.058,1.058,0,0,1-.128-.928.961.961,0,0,1,1.881.07l.553,4.322Z" transform="translate(-129.175 0)"/></g></g><g transform="translate(41.381 8.124)"><path d="M83.424,49.426l-5.5-8.261a4.17,4.17,0,0,0-7.615,2.817,4.021,4.021,0,0,0,1.978,2.9c9.174,5.2,8.816,5.3,9.662,5.3A1.777,1.777,0,0,0,83.424,49.426Zm-9.575-5.247a.9.9,0,0,1-.449-.659,1.042,1.042,0,0,1,1.923-.623l2.3,3.461Z" transform="translate(-70.261 -39.284)"/></g><g transform="translate(33.851 21.46)"><path d="M48.761,107.72,39.113,104.9a4.12,4.12,0,1,0-.386,8.02l9.845-1.746A1.776,1.776,0,0,0,48.761,107.72Zm-10.58,2.119a1.019,1.019,0,0,1-1.2-1.057.976.976,0,0,1,1.249-.886l4.114,1.2Z" transform="translate(-33.851 -104.718)"/></g><g transform="translate(89.277 0.015)"><path d="M311.53.329a4.087,4.087,0,0,0-5.474,3.314l-1.278,9.99a1.776,1.776,0,0,0,3.238,1.209l5.531-8.307A4.159,4.159,0,0,0,311.53.329ZM310.946,4.8,308.61,8.311l.546-4.27a.98.98,0,0,1,1.912-.13A1.018,1.018,0,0,1,310.946,4.8Z" transform="translate(-304.762 -0.073)"/></g><g transform="translate(97.339 8.009)"><path d="M356.532,40a4,4,0,0,0-6.258.512l-5.641,8.473A1.775,1.775,0,0,0,347,51.505l8.553-4.934A4.244,4.244,0,0,0,356.532,40Zm-2.544,3.865-3.558,2.052,2.446-3.673a.876.876,0,0,1,1.371-.112A1.118,1.118,0,0,1,353.988,43.864Z" transform="translate(-344.334 -38.727)"/></g><g transform="translate(101.984 21.51)"><path d="M378.3,105.15l-9.445,2.764a1.775,1.775,0,0,0,.188,3.451l10.054,1.783a3.953,3.953,0,0,0,3.327-.936C385.634,109.372,382.628,103.882,378.3,105.15Zm1.344,4.92-4.377-.776,3.911-1.145a1.127,1.127,0,0,1,.984.165A.932.932,0,0,1,379.639,110.07Z" transform="translate(-367.574 -104.962)"/></g><g transform="translate(109.873 53.011)"><path d="M419.543,283.133l-2.249-3.042.641-9.592a17.783,17.783,0,0,0-1.772-9.009,1.563,1.563,0,1,0-2.806,1.377,14.653,14.653,0,0,1,1.459,7.424c-.572,10.446-.979,10.382-.377,11.2l2.589,3.5a2.777,2.777,0,0,1-.583,3.886l-10.089,7.459a1.563,1.563,0,1,0,1.858,2.513L418.3,291.39A5.9,5.9,0,0,0,419.543,283.133Z" transform="translate(-405.724 -260.615)"/></g><g transform="translate(45.793 16.433)"><path d="M161.783,114.964a36.241,36.241,0,0,1-6.724-12.1c-1.495-4.017-3.592-6.533-7.737-4.976a6.216,6.216,0,0,0-4.012,4.8L131.516,86.528a6.608,6.608,0,0,0-11.6,1.584,6.6,6.6,0,0,0-11.178,4.044,6.662,6.662,0,0,0-7.713,9.472,6.736,6.736,0,0,0-4.884,10.762l1.572,2.155a6.739,6.739,0,0,0-4.78,10.755l3.943,5.4a1.531,1.531,0,0,0,2.158.329,1.576,1.576,0,0,0,.325-2.186l-3.943-5.4a3.59,3.59,0,0,1,3.1-5.775,3.488,3.488,0,0,1,2.339,1.206l0,.007c.337.614-1.067-1.362,24.588,33.779A20.291,20.291,0,0,0,136,160.184,7.624,7.624,0,0,1,139.893,163a8.683,8.683,0,0,0,2.626,2.81l-3.786,2.831a2.735,2.735,0,0,1-2.062.519c-1.616-.246-2.053-1.593-2.715-2.336a10.73,10.73,0,0,0-5.484-3.951,17.229,17.229,0,0,1-8.959-6.392l-15.877-21.765a1.531,1.531,0,0,0-2.158-.329,1.576,1.576,0,0,0-.324,2.186l15.877,21.765a20.293,20.293,0,0,0,10.554,7.528c3.069.934,4.257,3.462,4.785,4.041a5.812,5.812,0,0,0,8.2,1.248l6.252-4.676c1.9-.44,2.618-1.481,5.605-3.582a1.576,1.576,0,0,0,.324-2.186,1.531,1.531,0,0,0-2.158-.328c-3.309,2.366-3.557,2.946-4.735,3.1a2.76,2.76,0,0,1-2.211-.7c-.876-.8-2.381-4.263-6.754-5.591a17.229,17.229,0,0,1-8.962-6.388c-26.235-35.933-24.567-33.321-24.789-34.645a3.518,3.518,0,0,1,6.3-2.72l11.2,15.337a1.535,1.535,0,0,0,1.242.634,1.566,1.566,0,0,0,1.24-2.491c-17.385-23.813-16.407-22.308-16.674-23.227a3.723,3.723,0,0,1,.091-2.379,3.488,3.488,0,0,1,3.5-2.223,3.427,3.427,0,0,1,1.831.661c.8.59-.066-.295,16.934,22.913a1.535,1.535,0,0,0,1.242.634,1.566,1.566,0,0,0,1.24-2.491L115.122,98.668c-2.895-3.965-2.7-3.683-2.83-3.9a3.593,3.593,0,0,1-.469-2.435,3.536,3.536,0,0,1,6.4-1.457l18.746,25.677a1.535,1.535,0,0,0,1.242.634,1.566,1.566,0,0,0,1.24-2.491L123.288,92.556a3.6,3.6,0,0,1-.632-2.785,3.532,3.532,0,0,1,6.378-1.384l15.182,20.8a1.547,1.547,0,0,0,2.715-1.392c-.212-.692-.245-.861-.3-1.03-.34-1.112-1.219-4.828,1.76-5.946,1.417-.532,2.356-.668,3.747,3.069,1.518,4.132,3.765,8.906,6.582,12.194.235.275.241.306.6.779a1.532,1.532,0,0,0,2.163.3A1.577,1.577,0,0,0,161.783,114.964Zm-61.32-1.908-1.84-2.523a3.677,3.677,0,0,1,.474-4.922,3.5,3.5,0,0,1,4.951.337,33.2,33.2,0,0,0,2.061,2.928A6.616,6.616,0,0,0,100.462,113.056Zm4.153-14.572a6.643,6.643,0,0,0-.915,1.574A3.6,3.6,0,0,1,103.431,98a3.516,3.516,0,0,1,5.873-2.034C109.128,95.978,105.874,96.876,104.615,98.484Z" transform="translate(-91.596 -83.749)"/></g></g></svg>