<?xml version="1.0" encoding="utf-8"?>
<!-- Generator: Adobe Illustrator 22.0.1, SVG Export Plug-In . SVG Version: 6.00 Build 0)  -->
<svg version="1.1" id="레이어_1" xmlns="http://www.w3.org/2000/svg" xmlns:xlink="http://www.w3.org/1999/xlink" x="0px"
	 y="0px" viewBox="0 0 283.5 283.5" style="enable-background:new 0 0 283.5 283.5;" xml:space="preserve">
<style type="text/css">
	.st0{fill:#222222;}
</style>
<path class="st0" d="M238.4,24.5H45.2c-23.4,0-42.4,19-42.4,42.4v153.3c0,23.4,19,42.4,42.4,42.4h193.1c23.4,0,42.4-19,42.4-42.4
	V66.9C280.8,43.5,261.8,24.5,238.4,24.5z M19.8,220.2V66.9c0-14,11.4-25.4,25.4-25.4h88.1v204.2H45.2
	C31.2,245.7,19.8,234.2,19.8,220.2z M263.8,220.2c0,14-11.4,25.4-25.4,25.4h-88.1V41.4h88.1c14,0,25.4,11.4,25.4,25.4V220.2z"/>
</svg>
