<?xml version="1.0" encoding="utf-8"?>
<!-- Generator: Adobe Illustrator 22.0.1, SVG Export Plug-In . SVG Version: 6.00 Build 0)  -->
<svg version="1.1" id="레이어_1" xmlns="http://www.w3.org/2000/svg" xmlns:xlink="http://www.w3.org/1999/xlink" x="0px"
	 y="0px" viewBox="0 0 283.5 283.5" style="enable-background:new 0 0 283.5 283.5;" xml:space="preserve">
<style type="text/css">
	.st0{fill:#222222;}
</style>
<path class="st0" d="M237.9,27.5H44.3C20.9,27.5,1.8,46.6,1.8,70v153.8c0,23.4,19.1,42.5,42.5,42.5h193.6
	c23.4,0,42.5-19.1,42.5-42.5V70C280.5,46.6,261.4,27.5,237.9,27.5z M263.5,223.7c0,14.1-11.5,25.6-25.6,25.6h-46.6h-41.8h-17h-30.5
	H44.3c-14.1,0-25.6-11.5-25.6-25.6V70c0-14.1,11.5-25.6,25.6-25.6h57.9h30.5h17h41.8h46.4c14.1,0,25.6,11.5,25.6,25.6V223.7z"/>
</svg>
