<svg xmlns="http://www.w3.org/2000/svg" width="220" height="223.812" viewBox="0 0 220 223.812"><defs><style>.a{fill:#222;opacity:0.5;}.b{fill:#acacac;}.c{fill:#ddd;}.d{fill:#f4f8f8;}.e{fill:#e5ecf1;}</style></defs><g transform="translate(-127.6 -0.9)"><ellipse class="a" cx="101.198" cy="4.521" rx="101.198" ry="4.521" transform="translate(127.6 215.669)"/><g transform="translate(139.15 53.102)"><path class="b" d="M338.079,153.1a8.087,8.087,0,0,0-8.1-8.1H238.155a15.6,15.6,0,0,1-12.989-6.947l-2.137-3.165a15.733,15.733,0,0,0-12.948-6.947l-42.337-.041a12.016,12.016,0,0,0-12,12L155.7,286.069a8.631,8.631,0,0,0,8.632,8.632,16.867,16.867,0,0,0,16.853-16.812l.041-30.581,16.565-4.727-5.22-71.275,145.55.164-.041-18.374Z" transform="translate(-155.7 -127.9)"/><path class="c" d="M331.73,343.431c8.015-.247,16.442-6.741,19.072-14.756l18.209-109.912c1.439-4.48-.987-8.1-5.467-8.1L213.926,210.5c-4.48,0-9.29,3.617-10.728,8.1L182.522,334.8c-1.521,4.727-2.8,8.591-7.522,8.591Z" transform="translate(-167.067 -176.548)"/></g><g transform="translate(185.639 107.195)"><path class="d" d="M310.6,259.5H271.677a2.886,2.886,0,0,0-2.877,2.877v13.03a2.886,2.886,0,0,0,2.877,2.877H310.6a2.886,2.886,0,0,0,2.877-2.877v-13.03A2.86,2.86,0,0,0,310.6,259.5Z" transform="translate(-268.8 -259.5)"/></g><path class="e" d="M345.764,259.5H331.377v15.866a2.886,2.886,0,0,1-2.877,2.877h17.223a2.886,2.886,0,0,0,2.877-2.877v-13.03a2.79,2.79,0,0,0-2.836-2.836Z" transform="translate(-118.322 -152.305)"/><g transform="translate(225.91 0.9)"><path class="c" d="M511.148,36.743a2.561,2.561,0,0,1-2.548-2.548V3.448a2.548,2.548,0,0,1,5.1,0V34.194A2.509,2.509,0,0,1,511.148,36.743Z" transform="translate(-450.304 -0.9)"/><path class="c" d="M555.633,54.517a2.8,2.8,0,0,1-1.274-.329,2.555,2.555,0,0,1-.945-3.494l15.373-26.635a2.559,2.559,0,1,1,4.439,2.548L557.853,53.243A2.6,2.6,0,0,1,555.633,54.517Z" transform="translate(-476.497 -13.783)"/><path class="c" d="M588.133,103.255a2.5,2.5,0,0,1-2.22-1.274,2.554,2.554,0,0,1,.945-3.494l26.635-15.373a2.559,2.559,0,0,1,2.548,4.439l-26.635,15.373A2.8,2.8,0,0,1,588.133,103.255Z" transform="translate(-495.638 -49.12)"/><path class="c" d="M395.969,103.255a2.8,2.8,0,0,1-1.274-.329L368.059,87.553a2.559,2.559,0,0,1,2.548-4.439l26.635,15.373a2.555,2.555,0,0,1,.945,3.494A2.5,2.5,0,0,1,395.969,103.255Z" transform="translate(-366.774 -49.12)"/><path class="c" d="M444.706,54.517a2.5,2.5,0,0,1-2.22-1.274L427.113,26.607a2.559,2.559,0,0,1,4.439-2.548l15.373,26.635a2.554,2.554,0,0,1-.945,3.494A2.459,2.459,0,0,1,444.706,54.517Z" transform="translate(-402.111 -13.783)"/></g></g></svg>