<svg xmlns="http://www.w3.org/2000/svg" width="143.234" height="159.355" viewBox="0 0 143.234 159.355"><defs><style>.a{fill:#acacac;}.b{fill:#ddd;}.c{fill:#fff;}</style></defs><g transform="translate(-3.579 -0.512)"><g transform="translate(3.579 0.512)"><path class="a" d="M272.8,276.213V247.15a50.45,50.45,0,0,0-100.9,0v29.064h24.238V247.15a26.212,26.212,0,1,1,52.424,0v29.064Z" transform="translate(-150.733 -196.7)"/><g transform="translate(57.908)"><path class="a" d="M219,196.7a50.911,50.911,0,0,0-13.6,1.864,50.5,50.5,0,0,1,34.218,32.464,26.131,26.131,0,0,1,5.593,16.122v29.063h24.238V247.15A50.387,50.387,0,0,0,219,196.7Z" transform="translate(-205.4 -196.7)"/></g><path class="b" d="M278.5,349.826H169.928A17.365,17.365,0,0,1,152.6,332.5V278.429A17.366,17.366,0,0,1,169.928,261.1H278.5a17.366,17.366,0,0,1,17.329,17.329V332.5A17.436,17.436,0,0,1,278.5,349.826Z" transform="translate(-152.6 -190.471)"/><path class="c" d="M232.341,295.47a13.27,13.27,0,1,0-18.315,12.284v15.464a5.032,5.032,0,0,0,5.045,5.046,5.1,5.1,0,0,0,5.045-5.046V307.754A13.334,13.334,0,0,0,232.341,295.47Z" transform="translate(-147.453 -188.429)"/></g></g></svg>