<svg xmlns="http://www.w3.org/2000/svg" width="19.5" height="22" viewBox="0 0 19.5 22"><defs><style>.a{fill:#222;}</style></defs><path class="a" d="M25.145,2.5H10A2.214,2.214,0,0,0,7.8,4.7V17.946a2.214,2.214,0,0,0,2.2,2.2h2.617a7.4,7.4,0,0,1-.648,2.872,1.059,1.059,0,0,0,.973,1.482,1.054,1.054,0,0,0,.463-.116,14.558,14.558,0,0,0,4.724-4.261H25.1a2.214,2.214,0,0,0,2.2-2.2V4.7A2.145,2.145,0,0,0,25.145,2.5ZM17.735,17.228a1.2,1.2,0,1,1,1.2-1.2A1.211,1.211,0,0,1,17.735,17.228Zm2.918-6.253a5.077,5.077,0,0,1-1.3,1.227,1.131,1.131,0,0,0-.625,1.042.573.573,0,0,1-.556.509h-.88a.56.56,0,0,1-.556-.6A2.927,2.927,0,0,1,18.2,10.582a3.168,3.168,0,0,0,.834-.764,1.314,1.314,0,0,0,.093-1.366A1.585,1.585,0,0,0,17.6,7.641a1.6,1.6,0,0,0-1.76,1.413.55.55,0,0,1-.556.463H14.4a.553.553,0,0,1-.556-.625A3.6,3.6,0,0,1,17.6,5.649a3.6,3.6,0,0,1,3.312,1.922A3.18,3.18,0,0,1,20.653,10.976Z" transform="translate(-7.8 -2.5)"/></svg>