<svg xmlns="http://www.w3.org/2000/svg" width="28.221" height="37.299" viewBox="0 0 28.221 37.299"><path d="M48.221,13.309v-.188A4.693,4.693,0,0,0,46.9,9.97,4.5,4.5,0,0,0,43.612,8.7H40.366a.943.943,0,0,0-.941.941v3.1H20.941a.943.943,0,0,0-.941.941V45.059a.943.943,0,0,0,.941.941H43.612a4.5,4.5,0,0,0,4.609-4.657V13.309ZM41.26,10.581h2.3a2.588,2.588,0,0,1,1.975.753,2.891,2.891,0,0,1,.753,2.023v24.27a4.572,4.572,0,0,0-2.728-.8h-2.3Zm2.352,33.536H21.881V14.579h17.5v4.939H27.667a.941.941,0,1,0,0,1.881H39.379v4.7H27.667a.941.941,0,1,0,0,1.881H39.379v9.689a.943.943,0,0,0,.941.941h3.245a2.585,2.585,0,0,1,2.728,2.728,2.557,2.557,0,0,1-2.681,2.775Z" transform="translate(-20 -8.7)"/></svg>