<svg xmlns="http://www.w3.org/2000/svg" width="26.285" height="20.58" viewBox="0 0 26.285 20.58"><defs><style>.a{fill:#222;}.b{fill:#666;}</style></defs><g transform="translate(-0.001 -51.077)"><path class="a" d="M22.252,54.829V71.057a.57.57,0,0,1-.538.6H.541a.572.572,0,0,1-.539-.6V51.677a.574.574,0,0,1,.539-.6H7.192a.524.524,0,0,1,.453.279L9.3,54.231H21.713a.572.572,0,0,1,.539.6Z" transform="translate(0)"/><path class="b" d="M29.883,178.171,26.077,190.3a.82.82,0,0,1-.764.6H4.4a.593.593,0,0,1-.509-.8l3.772-12.014a.974.974,0,0,1,.908-.716H29.376a.593.593,0,0,1,.508.8Z" transform="translate(-3.634 -119.245)"/></g></svg>