<?xml version="1.0" encoding="utf-8"?>
<!-- Generator: Adobe Illustrator 22.0.1, SVG Export Plug-In . SVG Version: 6.00 Build 0)  -->
<svg version="1.1" id="레이어_1" xmlns="http://www.w3.org/2000/svg" xmlns:xlink="http://www.w3.org/1999/xlink" x="0px"
	 y="0px" viewBox="0 0 69.5 61.7" style="enable-background:new 0 0 69.5 61.7;" xml:space="preserve">
<style type="text/css">
	.st0{fill:none;}
	.st1{fill:#303030;}
	.st2{fill:#FFFFFF;}
</style>
<g>
	<path class="st0" d="M44.5,44l-13.4-9.2l-3,2.3c-0.5,0.4-1.2,0.4-1.7,0l-3.2-2.2L2.8,49v0h37.1C41.1,47.1,42.7,45.4,44.5,44z"/>
	<polygon class="st0" points="51.2,17.6 27.2,3.1 3.2,17.6 27.4,34.3 	"/>
	<path class="st0" d="M51.5,20.9L33.7,33.2l13.1,9.1c1.4-0.9,3-1.6,4.6-2.1V20.9z"/>
	<polygon class="st0" points="2.9,20.9 2.9,45.5 20.7,33.2 	"/>
	<path class="st1" d="M2.8,49L2.8,49l20.4-14.1l3.2,2.2c0.5,0.4,1.2,0.4,1.7,0l3-2.3L44.5,44c0.8-0.6,1.5-1.2,2.4-1.7l-13.1-9.1
		l17.8-12.3v19.3c0.9-0.3,1.9-0.6,2.9-0.8V17c0-0.5-0.3-1-0.7-1.2L28,0.2c-0.5-0.3-1.1-0.3-1.6,0L0.7,15.8l-0.3,0.3l-0.3,0.5l0,0.1
		l0,0.1v0.1V17v32.3c0.1,1.4,1.2,2.5,2.6,2.5h35.7c0.4-1,0.9-1.9,1.5-2.8H2.8z M27.2,3.1l24,14.5L27.4,34.3L3.2,17.6L27.2,3.1z
		 M2.9,20.9l17.8,12.3L2.9,45.5V20.9z"/>
	<path class="st2" d="M38.6,61.3C38.6,61.3,38.6,61.2,38.6,61.3L38.6,61.3z"/>
	<polygon class="st2" points="37.8,61.7 37.8,61.7 37.8,61.7 	"/>
	<path class="st1" d="M37.3,60.7c0,0.3,0.2,0.5,0.5,0.5H38c0.1,0,0.2,0,0.3-0.1l0.1-0.2l0.1-0.1c3.5-5,8.7-8.3,14.6-9.4
		c1.4-0.3,2.7-0.4,4.1-0.4c0.1,0,0.1,0,0.2,0h0.5v0.8v4.3c0,0.5,0.4,1,1,1c0.2,0,0.5-0.1,0.7-0.3l0.2-0.2l0,0
		c1.2-1.2,2.9-3.1,4.5-4.8c1-1,1.9-2,2.6-2.8c0.8-0.8,1.3-1.4,1.3-1.4c1.2-1.3,1.2-3.3,0-4.6c0,0-0.8-0.8-2-2.1
		c-0.5-0.6-1.2-1.4-1.9-2.1c-1.6-1.7-3.4-3.5-4.6-4.8L59.4,34c-0.2-0.2-0.5-0.2-0.8-0.2c-0.5,0-1,0.4-1,1v5.4h-0.5
		c-0.9,0-1.7,0.2-2.5,0.3c-1,0.1-1.9,0.4-2.9,0.7C43.4,43.9,37.5,51.5,37.3,60.7z"/>
</g>
</svg>
