<svg xmlns="http://www.w3.org/2000/svg" width="32.714" height="27.937" viewBox="0 0 32.714 27.937"><defs><style>.a{fill:#6cd36c;}</style></defs><path class="a" d="M270.468,1198.126l-1.76-1.456a.924.924,0,0,0-.592-.217.769.769,0,0,0-.119.008.961.961,0,0,0-.643.386l-15.9,21.687-10.319-9.173a.932.932,0,0,0-.619-.24.725.725,0,0,0-.085,0,.948.948,0,0,0-.654.362l-1.43,1.817a1.069,1.069,0,0,0,.12,1.443l12.786,11.366a1.069,1.069,0,0,0,.679.274.677.677,0,0,0,.1-.007.978.978,0,0,0,.7-.385l17.906-24.434A1.068,1.068,0,0,0,270.468,1198.126Z" transform="translate(-238.125 -1196.453)"/></svg>