<?xml version="1.0" encoding="utf-8"?>
<!-- Generator: Adobe Illustrator 22.0.1, SVG Export Plug-In . SVG Version: 6.00 Build 0)  -->
<svg version="1.1" id="레이어_1" xmlns="http://www.w3.org/2000/svg" xmlns:xlink="http://www.w3.org/1999/xlink" x="0px"
	 y="0px" viewBox="0 0 734.1 623" style="enable-background:new 0 0 734.1 623;" xml:space="preserve">
<style type="text/css">
	.st0{fill:#222222;}
	.st1{fill:#FFFFFF;}
</style>
<g>
	<g>
		<g>
			<g>
				<path class="st0" d="M216.1,173.6h15.1v111.9h-15.1V173.6z"/>
			</g>
			<g>
				<path class="st0" d="M254.9,169.2l82.7,85v-80.6h15.3v117.1l-82.7-84.7v79.5h-15.3V169.2z"/>
			</g>
		</g>
		<g>
			<g>
				<path class="st0" d="M406.7,358.5l-12.4,9.9c-3.3-3.4-6.2-5.9-8.9-7.6c-2.7-1.7-6.5-2.5-11.5-2.5c-5.5,0-9.9,1.2-13.4,3.7
					c-3.4,2.5-5.1,5.7-5.1,9.6c0,3.4,1.5,6.4,4.5,9c3,2.6,8.1,5.4,15.3,8.5c7.2,3.1,12.8,6,16.8,8.6c4,2.7,7.3,5.6,9.9,8.8
					c2.6,3.2,4.5,6.6,5.7,10.2c1.3,3.6,1.9,7.3,1.9,11.3c0,9.3-3.4,17.2-10.1,23.8c-6.8,6.6-14.9,9.8-24.5,9.8
					c-9.4,0-17.6-2.6-24.8-7.7c-7.2-5.1-12.7-12.8-16.6-23l15.3-4.3c5.6,12.6,14.1,18.9,25.6,18.9c5.6,0,10.2-1.7,13.9-5
					c3.7-3.3,5.5-7.5,5.5-12.6c0-3-1-6.1-2.9-9.1c-1.9-3.1-4.3-5.6-7.2-7.6c-2.9-2-7.4-4.2-13.7-6.8c-6.3-2.6-11.1-4.9-14.5-7.1
					c-3.4-2.1-6.3-4.7-8.8-7.6c-2.5-3-4.3-5.9-5.4-8.8c-1.2-2.9-1.7-6.1-1.7-9.4c0-8,3.2-14.8,9.7-20.5c6.4-5.6,14.3-8.5,23.5-8.5
					c6.1,0,12.3,1.3,18.5,4C397.3,349.1,402.5,353.1,406.7,358.5z"/>
			</g>
			<g>
				<path class="st0" d="M470,341.7l52.8,116.2h-16l-13-28.6h-47.5l-12.8,28.6h-15.9L470,341.7z M470,376.6l-17.9,39.9h36L470,376.6
					z"/>
			</g>
		</g>
		<g>
			<polygon class="st0" points="213.8,467.5 210.6,464.3 507.4,167.6 510.6,170.7 			"/>
		</g>
		<g>
			<path class="st0" d="M559.8,503.9H171.2V119.2h388.6V503.9z M178.7,496.4h373.6V126.7H178.7V496.4z"/>
		</g>
		<g>
			<path class="st0" d="M219.7,465.9c0,4.1-3.3,7.5-7.5,7.5c-4.1,0-7.5-3.4-7.5-7.5c0-4.1,3.4-7.5,7.5-7.5
				C216.3,458.4,219.7,461.8,219.7,465.9z"/>
		</g>
		<g>
			<path class="st0" d="M516.5,169.2c0,4.1-3.3,7.5-7.5,7.5c-4.1,0-7.5-3.4-7.5-7.5c0-4.1,3.4-7.5,7.5-7.5
				C513.1,161.7,516.5,165,516.5,169.2z"/>
		</g>
	</g>
</g>
</svg>
