<svg xmlns="http://www.w3.org/2000/svg" width="55.179" height="55.168" viewBox="0 0 55.179 55.168"><defs><style>.a{fill:#e60012;}.b{fill:#fff;}</style></defs><g transform="translate(-0.05 -0.05)"><path class="a" d="M38.99,50.533a16.119,16.119,0,0,1-22.723,0L4.735,38.99a16.119,16.119,0,0,1,0-22.723L16.278,4.735A16.119,16.119,0,0,1,39,4.735L50.544,16.278a16.119,16.119,0,0,1,0,22.723Z"/><g transform="translate(19.09 10.021)"><g transform="translate(0 31.152)"><path class="b" d="M174.284,376.095a1.7,1.7,0,0,1-1.247-2.858,1.7,1.7,0,1,1,1.324,2.858Z" transform="translate(-172.582 -372.683)"/></g><g transform="translate(0.627)"><path class="b" d="M185.538,93.457a3.119,3.119,0,0,0-2.3.894c-1.313,1.3-2,3.984-1.931,7.56.077,4.4,1.126,13.055,4.591,17.5a7.652,7.652,0,0,0,1.8,1.711,3.938,3.938,0,0,0,2.362.795,5.7,5.7,0,0,0,.927-.088c1.986-.475,4.481-2.693,6.335-5.628a1.545,1.545,0,0,1,2.119-.486,1.542,1.542,0,0,1,.475,2.119c-2.34,3.719-5.43,6.335-8.266,7-.011,0-.044.011-.066.011a8.072,8.072,0,0,1-1.523.143,7.054,7.054,0,0,1-4.039-1.3A11.113,11.113,0,0,1,183.5,121.3c-4.878-6.268-5.209-18.01-5.231-19.335-.055-3.123.4-7.361,2.836-9.789a6.075,6.075,0,0,1,4.436-1.777h.287a6.1,6.1,0,0,1,4.447,1.777c2.439,2.428,2.891,6.655,2.836,9.789a31.578,31.578,0,0,1-4.028,15.218,1.542,1.542,0,0,1-1.313.75,1.5,1.5,0,0,1-.784-.221,1.527,1.527,0,0,1-.53-2.1,26.55,26.55,0,0,0,3.6-13.706c.066-3.576-.629-6.257-1.931-7.56a3.068,3.068,0,0,0-2.284-.894Z" transform="translate(-178.261 -90.4)"/></g></g></g></svg>