<?xml version="1.0" encoding="utf-8"?>
<!-- Generator: Adobe Illustrator 22.0.1, SVG Export Plug-In . SVG Version: 6.00 Build 0)  -->
<svg version="1.1" id="레이어_1" xmlns="http://www.w3.org/2000/svg" xmlns:xlink="http://www.w3.org/1999/xlink" x="0px"
	 y="0px" viewBox="0 0 100 76.2" style="enable-background:new 0 0 100 76.2;" xml:space="preserve">
<style type="text/css">
	.st0{fill:#ACACAC;}
</style>
<g id="메일함_1_">
	<g id="구성_요소_7_2_1_">
		<path id="패스_8755_1_" class="st0" d="M95.2,0H4.8c-0.3,0-0.6,0-1,0.1C1.6,0.6,0,2.6,0,5v66.3c0,2.3,1.6,4.4,3.9,4.9
			c0.3,0.1,0.6,0.1,1,0.1h90.3c0.3,0,0.7,0,1-0.1c2.3-0.5,3.9-2.5,3.9-4.9V5C100,2.3,97.9,0,95.2,0z M5.4,8.3V5.5h89.3l0.2,2.3
			L50,41.3L5.4,8.3z M5.4,63.6V14.8L38,39.2L5.4,63.6z M42.6,42.6l5.8,4.3c0.9,0.7,2.2,0.7,3.2,0l5.8-4.3l37.2,27.5v0.5H5.2l0-0.1
			L42.6,42.6z M94.6,14.8v48.8L62,39.2L94.6,14.8z"/>
	</g>
</g>
</svg>
