<?xml version="1.0" encoding="utf-8"?>
<!-- Generator: Adobe Illustrator 22.0.1, SVG Export Plug-In . SVG Version: 6.00 Build 0)  -->
<svg version="1.1" id="레이어_1" xmlns="http://www.w3.org/2000/svg" xmlns:xlink="http://www.w3.org/1999/xlink" x="0px"
	 y="0px" viewBox="0 0 76.2 76.2" style="enable-background:new 0 0 76.2 76.2;" xml:space="preserve">
<style type="text/css">
	.st0{fill:#ACACAC;}
</style>
<g id="구성_요소_13__x2013__1_1_">
	<path id="패스_8739_1_" class="st0" d="M73.9,0H2.3C1,0,0,1,0,2.3l0,0v52.1C0,55,0.2,55.6,0.7,56l19.5,19.5
		c0.4,0.4,1,0.7,1.6,0.7h52.1c1.3,0,2.3-1,2.3-2.3V2.3C76.2,1,75.2,0,73.9,0L73.9,0z M21.8,52.1H4.6V4.6h67v67H24.1V54.4
		C24.1,53.1,23.1,52.1,21.8,52.1L21.8,52.1z"/>
	<path id="패스_8740_1_" class="st0" d="M18.5,20.7h39.6c1.2,0,2.2-1.1,2.2-2.3c0,0,0-0.1,0-0.1c0-1.2-1-2.2-2.2-2.2l0,0H18.5
		c-1.2,0-2.2,1.1-2.2,2.3c0,0,0,0.1,0,0.1C16.3,19.7,17.3,20.7,18.5,20.7L18.5,20.7z"/>
	<path id="패스_8741_1_" class="st0" d="M60.3,32.3c0-1.2-1-2.2-2.2-2.2l0,0H18.5c-1.2,0-2.2,1.1-2.2,2.3c0,0,0,0.1,0,0.1
		c0,1.2,1,2.2,2.2,2.2l0,0h39.6c1.2,0,2.2-1,2.2-2.3C60.3,32.4,60.3,32.4,60.3,32.3z"/>
	<path id="패스_8742_1_" class="st0" d="M58.1,44.2h-25c-1.2,0-2.2,1.1-2.2,2.3c0,0,0,0.1,0,0.1c0,1.2,1,2.2,2.2,2.2l0,0h25
		c1.2,0,2.2-1.1,2.2-2.3c0,0,0-0.1,0-0.1C60.3,45.2,59.3,44.2,58.1,44.2L58.1,44.2z"/>
</g>
</svg>
