<svg xmlns="http://www.w3.org/2000/svg" width="29.536" height="33.742" viewBox="0 0 29.536 33.742"><defs><style>.a{fill:#da291c;}</style></defs><path class="a" d="M38.846,6.665v2.1A1.056,1.056,0,0,1,37.79,9.819H10.366A1.056,1.056,0,0,1,9.31,8.763v-2.1a1.056,1.056,0,0,1,1.056-1.056h7.9l.621-1.234A1.713,1.713,0,0,1,20.3,3.5h7.545a1.735,1.735,0,0,1,1.415.875l.624,1.234H37.8A1.056,1.056,0,0,1,38.846,6.665ZM11.422,11.938H36.737V34.077a3.165,3.165,0,0,1-3.165,3.165H14.583a3.165,3.165,0,0,1-3.165-3.165ZM16.7,31.99a1.056,1.056,0,0,0,2.109,0V17.212a1.056,1.056,0,0,0-2.109,0Zm6.33,0a1.056,1.056,0,0,0,2.109,0V17.212a1.056,1.056,0,0,0-2.109,0Zm6.33,0a1.056,1.056,0,0,0,2.109,0V17.212a1.056,1.056,0,0,0-2.109,0Z" transform="translate(-9.31 -3.5)"/></svg>