<svg xmlns="http://www.w3.org/2000/svg" width="45.922" height="34.917" viewBox="0 0 45.922 34.917"><defs><style>.a{fill:#da291c;}.b{fill:#fff;}</style></defs><g transform="translate(-125.058 -52.083)"><path d="M25.483,5.19H16.516A14.036,14.036,0,0,0,2.48,19.226h0a14.036,14.036,0,0,0,12.008,13.9,12.632,12.632,0,0,1-.355,5.536,1.127,1.127,0,0,0,1.587,1.326c2.339-1.17,5.646-3.349,7.408-6.714h2.339A14.036,14.036,0,0,0,39.5,19.238h0A14.036,14.036,0,0,0,25.483,5.19ZM15.346,21.284a2.047,2.047,0,1,1,2.047-2.047,2.047,2.047,0,0,1-2.047,2.047Zm5.657,0a2.047,2.047,0,1,1,2.047-2.047A2.047,2.047,0,0,1,21,21.284Zm5.657,0a2.047,2.047,0,1,1,2.047-2.047,2.047,2.047,0,0,1-2.047,2.047Z" transform="translate(122.578 46.893)"/><g transform="translate(145.023 67.992)"><circle class="a" cx="9" cy="9" r="9" transform="translate(7.957 1.008)"/><path class="b" d="M1.2,0H2.256V-4.62c0-.924-.084-1.86-.132-2.748h.048L3.12-5.556,6.324,0h1.14V-8.8H6.408v4.572c0,.912.084,1.9.144,2.784h-.06L5.556-3.252,2.352-8.8H1.2Z" transform="translate(12.957 15.008)"/></g></g></svg>