<svg xmlns="http://www.w3.org/2000/svg" width="52.191" height="35.792" viewBox="0 0 52.191 35.792"><defs><style>.a{fill:#da291c;}.b{fill:#fff;}</style></defs><g transform="translate(-1627.809 -906.208)"><g transform="translate(1624.434 898.333)"><path d="M46.116,10.377,34.97,21.731a.2.2,0,0,0,0,.29l7.8,8.308a1.344,1.344,0,0,1,0,1.906,1.351,1.351,0,0,1-1.906,0L33.1,23.958a.213.213,0,0,0-.3,0l-1.9,1.927a8.341,8.341,0,0,1-5.946,2.507,8.508,8.508,0,0,1-6.07-2.579l-1.823-1.854a.213.213,0,0,0-.3,0L8.99,32.235a1.35,1.35,0,0,1-1.906,0,1.344,1.344,0,0,1,0-1.906l7.8-8.308a.221.221,0,0,0,0-.29L3.727,10.377a.2.2,0,0,0-.352.145V33.24A3.325,3.325,0,0,0,6.69,36.555H43.154a3.325,3.325,0,0,0,3.315-3.315V10.523A.207.207,0,0,0,46.116,10.377Z" transform="translate(0 1.154)"/><path d="M24.519,26.842a5.632,5.632,0,0,0,4.05-1.7L44.823,8.6a3.256,3.256,0,0,0-2.051-.725H6.277A3.234,3.234,0,0,0,4.226,8.6L20.479,25.143A5.632,5.632,0,0,0,24.519,26.842Z" transform="translate(0.403 0)"/></g><g transform="translate(1654.043 922.992)"><circle class="a" cx="9" cy="9" r="9" transform="translate(7.957 1.008)"/><path class="b" d="M1.2,0H2.256V-4.62c0-.924-.084-1.86-.132-2.748h.048L3.12-5.556,6.324,0h1.14V-8.8H6.408v4.572c0,.912.084,1.9.144,2.784h-.06L5.556-3.252,2.352-8.8H1.2Z" transform="translate(12.957 15.008)"/></g></g></svg>