<?xml version="1.0" encoding="utf-8"?>
<!-- Generator: Adobe Illustrator 22.0.1, SVG Export Plug-In . SVG Version: 6.00 Build 0)  -->
<svg version="1.1" id="레이어_1" xmlns="http://www.w3.org/2000/svg" xmlns:xlink="http://www.w3.org/1999/xlink" x="0px"
	 y="0px" viewBox="0 0 69.5 61.7" style="enable-background:new 0 0 69.5 61.7;" xml:space="preserve">
<style type="text/css">
	.st0{fill:none;}
	.st1{fill:#303030;}
</style>
<g>
	<polygon class="st0" points="51.6,17.7 27.4,3.1 3.3,17.7 27.6,34.6 	"/>
	<polygon class="st0" points="3,21 3,45.8 20.9,33.4 	"/>
	<path class="st1" d="M54.2,15.9l-26-15.7c-0.5-0.3-1.1-0.3-1.6,0l-26,15.7l-0.3,0.3l-0.3,0.4L0,16.8v0.3v32.6C0,51,0.9,52,2.1,52.2
		c0.2,0,0.4,0.1,0.5,0.1h38.4c-1.1-1.2-2-2.2-2.6-2.8H2.8v0l20.6-14.2l3.2,2.2c0.5,0.4,1.2,0.4,1.7,0l3-2.3l8.3,5.7
		c0.6-0.6,1.2-1.3,1.9-2.1L34,33.4L51.9,21v18.6c1,0.2,2,0.4,2.9,0.7V17.2C54.9,16.7,54.6,16.2,54.2,15.9z M3,45.8V21l17.9,12.4
		L3,45.8z M27.6,34.6L3.3,17.7L27.4,3.1l24.2,14.7L27.6,34.6z"/>
	<path class="st1" d="M54.9,41.4c-1-0.3-1.9-0.6-2.9-0.7c-0.8-0.1-1.6-0.3-2.5-0.3l-0.5,0V35c0-0.6-0.5-1-1-1
		c-0.3,0-0.5,0.1-0.7,0.3L47,34.4c-1.2,1.3-3,3.1-4.6,4.8c-0.7,0.7-1.4,1.5-1.9,2.1c-1.2,1.3-2,2.1-2,2.1c-1.2,1.3-1.2,3.3,0,4.6
		c0,0,0.5,0.6,1.3,1.4c0.7,0.8,1.6,1.8,2.6,2.8c1.6,1.7,3.3,3.6,4.5,4.8h0l0.2,0.2c0.2,0.2,0.5,0.3,0.7,0.3c0.6,0,1-0.5,1-1v-4.3
		v-0.8l0.5,0c0.1,0,0.1,0,0.2,0c1.4,0,2.7,0.1,4.1,0.4c5.9,1.1,11.2,4.5,14.7,9.5l0.1,0.1l0.1,0.2c0.1,0.1,0.2,0.1,0.3,0.1H69
		c0.3,0,0.5-0.2,0.5-0.5C69.3,51.9,63.3,44.2,54.9,41.4z"/>
</g>
</svg>
