<?xml version="1.0" encoding="utf-8"?>
<!-- Generator: Adobe Illustrator 22.0.1, SVG Export Plug-In . SVG Version: 6.00 Build 0)  -->
<svg version="1.1" id="레이어_1" xmlns="http://www.w3.org/2000/svg" xmlns:xlink="http://www.w3.org/1999/xlink" x="0px"
	 y="0px" viewBox="0 0 69.5 61.7" style="enable-background:new 0 0 69.5 61.7;" xml:space="preserve">
<style type="text/css">
	.st0{fill:#303030;}
	.st1{fill:none;}
</style>
<g id="구성_요소_47__x2013__7_1_">
	<path id="패스_8760_1_" class="st0" d="M1.2,47.2C0.5,47.2,0,46.7,0,46c0,0,0,0,0,0V14.4c0-0.4,0.2-0.8,0.6-1L22.3,0.2
		c0.6-0.3,1.3-0.2,1.6,0.4c0.3,0.6,0.2,1.3-0.4,1.6L2.3,15v31C2.3,46.7,1.8,47.2,1.2,47.2C1.2,47.2,1.2,47.2,1.2,47.2z"/>
	<g>
		<polygon class="st1" points="52.4,17.4 30.6,4.3 8.9,17.4 30.8,32.7 		"/>
		<polygon class="st1" points="8.7,20.4 8.7,42.7 24.8,31.6 		"/>
		<path class="st0" d="M54.7,15.8L31.3,1.7c-0.4-0.3-1-0.3-1.4,0L6.5,15.8l-0.3,0.3L6,16.5l0,0.2v0.3v29.3c0,1.2,0.8,2.1,1.9,2.2
			c0.2,0,0.4,0.1,0.4,0.1h34.6c-1-1.1-1.8-2-2.3-2.5h-32l0,0L27,33.3l2.9,2c0.4,0.4,1.1,0.4,1.5,0l2.7-2.1l7.5,5.1
			c0.5-0.5,1.1-1.2,1.7-1.9l-6.7-4.9l16.1-11.2v16.7c0.9,0.2,1.8,0.4,2.6,0.6V17C55.4,16.5,55.1,16.1,54.7,15.8z M8.7,42.7V20.4
			l16.1,11.2L8.7,42.7z M30.8,32.7L8.9,17.4L30.6,4.3l21.8,13.2L30.8,32.7z"/>
		<path class="st0" d="M55.4,38.8c-0.9-0.3-1.7-0.5-2.6-0.6c-0.7-0.1-1.4-0.3-2.2-0.3h-0.4V33c0-0.5-0.4-0.9-0.9-0.9
			c-0.3,0-0.5,0-0.7,0.2l-0.2,0.2c-1.1,1.2-2.7,2.8-4.1,4.3c-0.6,0.6-1.3,1.3-1.7,1.9c-1.1,1.2-1.8,1.9-1.8,1.9
			c-1.1,1.2-1.1,3,0,4.1c0,0,0.4,0.5,1.2,1.3c0.6,0.7,1.4,1.6,2.3,2.5c1.4,1.5,3,3.2,4,4.3l0,0l0.2,0.2c0.2,0.2,0.4,0.3,0.6,0.3
			c0.5,0,0.9-0.4,0.9-0.9v-3.9v-0.7h0.4c0.1,0,0.1,0,0.2,0c1.3,0,2.4,0.1,3.7,0.4c5.3,1,10.1,4,13.2,8.5l0.1,0.1l0.1,0.2
			c0.1,0.1,0.2,0.1,0.3,0.1h0.2c0.3,0,0.4-0.2,0.4-0.4C68.3,48.2,62.9,41.3,55.4,38.8z"/>
	</g>
</g>
</svg>
