<svg xmlns="http://www.w3.org/2000/svg" width="21.573" height="21.573" viewBox="0 0 21.573 21.573"><defs><style>.a{fill:#222;}</style></defs><path class="a" d="M20.9,6.966,16.857,2.927a2.311,2.311,0,0,0-1.634-.677H2.311A2.311,2.311,0,0,0,0,4.561v16.95a2.311,2.311,0,0,0,2.311,2.311h16.95a2.311,2.311,0,0,0,2.311-2.311V8.6A2.311,2.311,0,0,0,20.9,6.966ZM10.787,20.741a3.082,3.082,0,1,1,3.082-3.082A3.082,3.082,0,0,1,10.787,20.741ZM15.409,6.077v4.84a.578.578,0,0,1-.578.578H3.66a.578.578,0,0,1-.578-.578V5.91a.578.578,0,0,1,.578-.578h11a.578.578,0,0,1,.409.169l.168.168a.578.578,0,0,1,.169.409Z" transform="translate(0 -2.25)"/></svg>